<svg width="50" height="50" viewBox="0 0 50 50" fill="none" xmlns="http://www.w3.org/2000/svg">
<path d="M25 2C12.3193 2 2 12.3193 2 25C2 37.6807 12.3193 48 25 48C37.6807 48 48 37.6807 48 25C48 12.3193 37.6807 2 25 2ZM25 5.83333C35.6087 5.83333 44.1667 14.3912 44.1667 25C44.1701 29.5881 42.5244 34.0246 39.5295 37.5004C36.5346 40.9763 32.3902 43.2599 27.852 43.9347V30.589H33.3107L34.1674 25.0441H27.852V22.0157C27.852 19.7157 28.6091 17.6707 30.7615 17.6707H34.2211V12.833C33.6135 12.7506 32.3274 12.5723 29.8971 12.5723C24.8218 12.5723 21.8471 15.2518 21.8471 21.3583V25.0441H16.6299V30.589H21.8471V43.8868C17.3712 43.1501 13.303 40.846 10.3695 37.3862C7.43595 33.9263 5.82814 29.5361 5.83333 25C5.83333 14.3912 14.3912 5.83333 25 5.83333Z" fill="black"/>
</svg>
