<svg width="50" height="50" viewBox="0 0 50 50" fill="none" xmlns="http://www.w3.org/2000/svg">
<path d="M16.2493 4.16602H33.7493C40.416 4.16602 45.8327 9.58268 45.8327 16.2493V33.7493C45.8327 36.954 44.5596 40.0275 42.2936 42.2936C40.0275 44.5596 36.954 45.8327 33.7493 45.8327H16.2493C9.58268 45.8327 4.16602 40.416 4.16602 33.7493V16.2493C4.16602 13.0447 5.43908 9.97121 7.70514 7.70514C9.97121 5.43908 13.0447 4.16602 16.2493 4.16602ZM15.8327 8.33268C13.8436 8.33268 11.9359 9.12286 10.5294 10.5294C9.12286 11.9359 8.33268 13.8436 8.33268 15.8327V34.166C8.33268 38.3118 11.6868 41.666 15.8327 41.666H34.166C36.1551 41.666 38.0628 40.8758 39.4693 39.4693C40.8758 38.0628 41.666 36.1551 41.666 34.166V15.8327C41.666 11.6868 38.3118 8.33268 34.166 8.33268H15.8327ZM35.9368 11.4577C36.6275 11.4577 37.2899 11.732 37.7783 12.2204C38.2666 12.7088 38.541 13.3712 38.541 14.0618C38.541 14.7525 38.2666 15.4149 37.7783 15.9033C37.2899 16.3916 36.6275 16.666 35.9368 16.666C35.2462 16.666 34.5838 16.3916 34.0954 15.9033C33.607 15.4149 33.3327 14.7525 33.3327 14.0618C33.3327 13.3712 33.607 12.7088 34.0954 12.2204C34.5838 11.732 35.2462 11.4577 35.9368 11.4577ZM24.9993 14.5827C27.762 14.5827 30.4115 15.6801 32.365 17.6337C34.3185 19.5872 35.416 22.2367 35.416 24.9993C35.416 27.762 34.3185 30.4115 32.365 32.365C30.4115 34.3185 27.762 35.416 24.9993 35.416C22.2367 35.416 19.5872 34.3185 17.6337 32.365C15.6801 30.4115 14.5827 27.762 14.5827 24.9993C14.5827 22.2367 15.6801 19.5872 17.6337 17.6337C19.5872 15.6801 22.2367 14.5827 24.9993 14.5827ZM24.9993 18.7493C23.3417 18.7493 21.752 19.4078 20.5799 20.5799C19.4078 21.752 18.7493 23.3417 18.7493 24.9993C18.7493 26.657 19.4078 28.2467 20.5799 29.4188C21.752 30.5909 23.3417 31.2493 24.9993 31.2493C26.657 31.2493 28.2467 30.5909 29.4188 29.4188C30.5909 28.2467 31.2493 26.657 31.2493 24.9993C31.2493 23.3417 30.5909 21.752 29.4188 20.5799C28.2467 19.4078 26.657 18.7493 24.9993 18.7493Z" fill="black"/>
</svg>
