<svg width="50" height="50" viewBox="0 0 50 50" fill="none" xmlns="http://www.w3.org/2000/svg">
<path d="M39.6881 10.2286C37.7779 8.29968 35.5028 6.77022 32.9955 5.72938C30.4881 4.68854 27.7987 4.15713 25.084 4.16613C13.709 4.16613 4.43815 13.437 4.43815 24.812C4.43815 28.4578 5.39648 31.9995 7.18815 35.1245L4.27148 45.8328L15.209 42.9578C18.2298 44.6036 21.6257 45.4786 25.084 45.4786C36.459 45.4786 45.7298 36.2078 45.7298 24.8328C45.7298 19.312 43.584 14.1245 39.6881 10.2286ZM25.084 41.9786C22.0007 41.9786 18.9798 41.1453 16.334 39.5828L15.709 39.2078L9.20898 40.9161L10.9382 34.5828L10.5215 33.937C8.80804 31.2017 7.89841 28.0396 7.89648 24.812C7.89648 15.3536 15.6048 7.64529 25.0631 7.64529C29.6465 7.64529 33.959 9.43696 37.1881 12.687C38.7874 14.2783 40.0546 16.1714 40.9165 18.2564C41.7784 20.3414 42.2177 22.5767 42.209 24.8328C42.2507 34.2911 34.5423 41.9786 25.084 41.9786ZM34.5006 29.1453C33.9798 28.8953 31.4381 27.6453 30.9798 27.4578C30.5006 27.2911 30.1673 27.2078 29.8132 27.7078C29.459 28.2286 28.4798 29.3953 28.1881 29.7286C27.8965 30.0828 27.584 30.1245 27.0631 29.8536C26.5423 29.6036 24.8757 29.0411 22.9173 27.2911C21.3757 25.9161 20.3548 24.2286 20.0423 23.7078C19.7506 23.187 20.0006 22.9161 20.2715 22.6453C20.5006 22.4161 20.7923 22.0411 21.0423 21.7495C21.2923 21.4578 21.3965 21.2286 21.5632 20.8953C21.7298 20.5411 21.6465 20.2495 21.5215 19.9995C21.3965 19.7495 20.3548 17.2078 19.9381 16.1661C19.5215 15.1661 19.084 15.2911 18.7715 15.2703H17.7715C17.4173 15.2703 16.8757 15.3953 16.3965 15.9161C15.9382 16.437 14.6048 17.687 14.6048 20.2286C14.6048 22.7703 16.459 25.2286 16.709 25.562C16.959 25.9161 20.3548 31.1245 25.5215 33.3536C26.7507 33.8953 27.709 34.2078 28.459 34.437C29.6881 34.8328 30.8132 34.7703 31.709 34.6453C32.709 34.4995 34.7715 33.3953 35.1881 32.187C35.6256 30.9786 35.6257 29.9578 35.4798 29.7286C35.334 29.4995 35.0215 29.3953 34.5006 29.1453Z" fill="black"/>
</svg>
