<svg width="50" height="50" viewBox="0 0 50 50" fill="none" xmlns="http://www.w3.org/2000/svg">
<path d="M29.1667 25.0007L21.875 29.1673V20.834L29.1667 25.0007Z" fill="black" stroke="black" stroke-width="3.125" stroke-linecap="round" stroke-linejoin="round"/>
<path d="M4.16602 26.4757V23.5256C4.16602 17.4944 4.16602 14.4777 6.05143 12.5382C7.93893 10.5965 10.9098 10.5132 16.8493 10.3444C19.6618 10.2652 22.5368 10.209 24.9993 10.209C27.4618 10.209 30.3348 10.2652 33.1493 10.3444C39.0889 10.5132 42.0598 10.5965 43.9452 12.5382C45.8306 14.4798 45.8327 17.4965 45.8327 23.5256V26.4736C45.8327 32.5069 45.8327 35.5215 43.9473 37.4632C42.0598 39.4027 39.091 39.4882 33.1493 39.6548C30.3368 39.7361 27.4618 39.7923 24.9993 39.7923C22.5368 39.7923 19.6639 39.7361 16.8493 39.6548C10.9098 39.4882 7.93893 39.4048 6.05143 37.4632C4.16393 35.5215 4.16602 32.5048 4.16602 26.4757Z" stroke="black" stroke-width="4"/>
</svg>
